<svg class="icon" viewBox="0 0 395 291">
    <defs>
        <pattern id="pattern" patternUnits="userSpaceOnUse" width="100" height="100">
            <image href="resources/icons/your-image.jpg" x="0" y="0" width="100" height="100" />
        </pattern>
    </defs>
    <path d="M32.75 290.65C24.0674 290.639 15.7435 287.186 9.60394 281.046C3.46442 274.907 0.0105853 266.583 0 257.9V32.75C0.0105853 24.0674 3.46442 15.7435 9.60394 9.60394C15.7435 3.46442 24.0674 0.0105853 32.75 0H361.5C370.183 0.0105853 378.507 3.46442 384.646 9.60394C390.786 15.7435 394.239 24.0674 394.25 32.75V118.35C394.242 127.537 390.589 136.346 384.092 142.842C377.596 149.339 368.787 152.992 359.6 153H345.1C327.605 153.032 310.837 159.995 298.466 172.366C286.095 184.736 279.132 201.505 279.1 219V256C279.092 265.187 275.439 273.996 268.943 280.492C262.446 286.989 253.637 290.642 244.45 290.65H32.75Z" />
</svg>