<svg width="32" height="32" viewBox="0 0 32 32" fill="none" xmlns="http://www.w3.org/2000/svg">
<g id="vuesax/bold/sms">
<g id="sms">
<path id="Vector" d="M22.6666 4.66675H9.33329C5.33329 4.66675 2.66663 6.66675 2.66663 11.3334V20.6667C2.66663 25.3334 5.33329 27.3334 9.33329 27.3334H22.6666C26.6666 27.3334 29.3333 25.3334 29.3333 20.6667V11.3334C29.3333 6.66675 26.6666 4.66675 22.6666 4.66675ZM23.2933 12.7867L19.12 16.1201C18.24 16.8267 17.12 17.1734 16 17.1734C14.88 17.1734 13.7466 16.8267 12.88 16.1201L8.70663 12.7867C8.27996 12.4401 8.21329 11.8001 8.54663 11.3734C8.89329 10.9467 9.51996 10.8667 9.94663 11.2134L14.12 14.5467C15.1333 15.3601 16.8533 15.3601 17.8666 14.5467L22.04 11.2134C22.4666 10.8667 23.1066 10.9334 23.44 11.3734C23.7866 11.8001 23.72 12.4401 23.2933 12.7867Z" fill="#FD853A"/>
</g>
</g>
</svg>
